<svg xmlns="http://www.w3.org/2000/svg" viewBox="0 0 39 39"><g fill="rgba(255, 255, 255, 0.8)"><path d="M19.64 17.5c.4-.02.72-.09.95-.2.32-.14.54-.32.64-.55s.15-.5.15-.8c0-.23-.06-.46-.18-.7s-.32-.4-.61-.51c-.27-.1-.6-.16-.99-.17l-1.65-.01h-.34v2.96h.57c.57 0 1.06 0 1.46-.02zM21.12 20.08a4.65 4.65 0 0 0-1.17-.13h-2.34v3.49h.27l2.18-.01c.43-.01.84-.1 1.2-.25.38-.16.64-.36.78-.62s.22-.57.22-.9c0-.45-.1-.8-.27-1.03a1.56 1.56 0 0 0-.87-.55z"/><path d="M19 3a16 16 0 1 0 0 32 16 16 0 0 0 0-32zm6.6 20.53c-.27.53-.64.98-1.12 1.33-.55.41-1.16.7-1.82.88s-1.5.27-2.52.27h-6.12V11.99h5.44c1.13 0 1.96.03 2.48.11s1.04.24 1.56.5c.53.27.93.63 1.19 1.09.26.45.39.97.39 1.55 0 .68-.18 1.28-.54 1.8a3.5 3.5 0 0 1-1.51 1.2v.08c.91.18 1.64.56 2.18 1.13s.8 1.33.8 2.26c0 .68-.14 1.29-.4 1.82z"/></g><path fill="rgba(255, 255, 255, 0.5)" d="M19 0a19 19 0 1 0 0 38 19 19 0 0 0 0-38zm0 35a16 16 0 1 1 0-32 16 16 0 0 1 0 32z"/></svg>