<svg xmlns="http://www.w3.org/2000/svg" viewBox="0 0 39 39"><g fill="rgba(255, 255, 255, 0.8)"><path d="M23.92 19a4.94 4.94 0 1 1-9.74-1.14h-.9v6.84h11.4v-6.84h-.9c.09.37.14.75.14 1.14z"/><path d="M18.98 21.66a2.66 2.66 0 1 0 0-5.33 2.66 2.66 0 0 0 0 5.33zM21.64 13.3h3.04v3.04h-3.04V13.3z"/><path d="M19 3a16 16 0 1 0 0 32 16 16 0 0 0 0-32zm7.96 21.7a2.28 2.28 0 0 1-2.28 2.28h-11.4A2.28 2.28 0 0 1 11 24.7V13.3a2.29 2.29 0 0 1 2.28-2.28h11.4a2.29 2.29 0 0 1 2.27 2.28v11.4z"/></g><path fill="rgba(255, 255, 255, 0.5)" d="M19 0a19 19 0 1 0 0 38 19 19 0 0 0 0-38zm0 35a16 16 0 1 1 0-32 16 16 0 0 1 0 32z"/></svg>